<?xml version="1.0" standalone="no"?>
<!DOCTYPE svg PUBLIC "-//W3C//DTD SVG 20010904//EN"
 "http://www.w3.org/TR/2001/REC-SVG-20010904/DTD/svg10.dtd">
<svg version="1.0" xmlns="http://www.w3.org/2000/svg"
 width="126.000000pt" height="126.000000pt" viewBox="0 0 126.000000 126.000000"
 preserveAspectRatio="xMidYMid meet">

  <g transform="translate(0.000000,126.000000) scale(0.100000,-0.100000)"
     fill="#6b7280" stroke="none">
    <path d="M486 1185 c-207 -59 -372 -231 -416 -436 -19 -84 -9 -250 19 -324 12
    -33 23 -64 25 -70 6 -25 42 -84 80 -128 45 -53 143 -116 250 -159 61 -25 80
    -28 186 -28 99 0 130 4 190 24 179 61 319 200 376 373 27 82 27 284 0 366 -55
    167 -192 307 -362 369 -75 28 -272 35 -348 13z m342 -93 c126 -48 231 -145
    290 -269 37 -77 37 -79 37 -204 l0 -126 -42 -85 c-33 -65 -58 -100 -107 -146
    -61 -57 -158 -113 -218 -128 l-28 -6 0 112 0 111 68 31 c37 17 96 42 132 57
    128 51 190 120 190 209 l0 40 -128 3 c-153 5 -182 17 -182 75 0 28 -3 35 -15
    30 -8 -3 -15 -2 -15 2 0 12 -108 41 -177 48 -34 4 -62 10 -61 13 2 13 -52 121
    -62 121 -5 0 -7 6 -5 13 9 23 -32 75 -62 79 -25 3 -21 6 27 22 107 37 256 36
    358 -2z m-432 -45 c-11 -16 -17 -67 -21 -192 -6 -172 -22 -252 -62 -313 -8
    -13 -13 -26 -10 -28 2 -3 -23 -31 -57 -64 l-61 -60 -25 53 c-23 47 -25 64 -25
    177 0 123 0 126 37 202 41 86 107 163 183 214 27 19 51 34 53 34 1 0 -4 -10
    -12 -23z"/>
    <path d="M579 1054 c-17 -21 -14 -49 11 -103 20 -41 29 -51 50 -51 14 0 35 -3
    46 -6 l21 -6 -15 79 c-8 43 -19 83 -24 90 -13 16 -75 14 -89 -3z"/>
  </g>
</svg>
